<mxfile host="app.diagrams.net" modified="2023-08-31T10:23:19.628Z" agent="Mozilla/5.0 (X11; Ubuntu; Linux x86_64; rv:109.0) Gecko/20100101 Firefox/116.0" version="21.7.1" etag="E6PBPjFMNFVLsSNxJfjS" type="github">
  <diagram name="PÃ¡gina-1" id="_W4185GXHFZPvv31WhUj">
    <mxGraphModel>
      <root>
        <mxCell id="0" />
        <mxCell id="1" parent="0" />
      </root>
    </mxGraphModel>
  </diagram>
</mxfile>
